<?xml version="1.0" encoding="UTF-8" standalone="no"?>
<!-- Created with Inkscape (http://www.inkscape.org/) -->

<svg
   width="66.615074mm"
   height="20.982622mm"
   viewBox="0 0 66.615074 20.982622"
   version="1.1"
   id="svg4243"
   sodipodi:docname="intertext_logo.svg"
   inkscape:version="1.2.1 (9c6d41e4, 2022-07-14)"
   xmlns:inkscape="http://www.inkscape.org/namespaces/inkscape"
   xmlns:sodipodi="http://sodipodi.sourceforge.net/DTD/sodipodi-0.dtd"
   xmlns="http://www.w3.org/2000/svg"
   xmlns:svg="http://www.w3.org/2000/svg">
  <sodipodi:namedview
     id="namedview4245"
     pagecolor="#ffffff"
     bordercolor="#000000"
     borderopacity="0.25"
     inkscape:showpageshadow="2"
     inkscape:pageopacity="0.0"
     inkscape:pagecheckerboard="0"
     inkscape:deskcolor="#d1d1d1"
     inkscape:document-units="mm"
     showgrid="false"
     inkscape:zoom="0.88924456"
     inkscape:cx="68.597552"
     inkscape:cy="112.455"
     inkscape:window-width="1440"
     inkscape:window-height="872"
     inkscape:window-x="0"
     inkscape:window-y="28"
     inkscape:window-maximized="0"
     inkscape:current-layer="layer1" />
  <defs
     id="defs4240" />
  <g
     inkscape:label="Layer 1"
     inkscape:groupmode="layer"
     id="layer1"
     transform="translate(-1.0583353,-1.0583375)">
    <g
       id="g3609"
       transform="matrix(0.26458333,0,0,0.26458333,-804.35761,-138.58692)">
      <path
         style="fill:#000000;stroke:#1c4587;stroke-width:2.571;stroke-dasharray:none;stroke-opacity:1"
         d="m 3127.3949,567.44528 c 69.1771,0 69.1771,0 69.1771,0 v 0"
         id="path3540" />
      <path
         style="fill:#000000;stroke:#1c4587;stroke-width:2.767;stroke-dasharray:none;stroke-opacity:1"
         d="m 3126.834,565.50546 24.9357,-32.49943"
         id="path3444" />
      <path
         style="fill:#000000;stroke:#1c4587;stroke-width:2.767;stroke-dasharray:none;stroke-opacity:1"
         d="m 3126.834,569.38512 24.9357,32.49943"
         id="path3458" />
      <path
         fill="#ffd966"
         d="m 3247.6875,567.44525 v 0 c 0,-7.80151 6.3245,-14.12598 14.126,-14.12598 v 0 c 3.7466,0 7.3393,1.48828 9.9885,4.13745 2.6492,2.64911 4.1375,6.24213 4.1375,9.98853 v 0 c 0,7.80157 -6.3245,14.12604 -14.126,14.12604 v 0 c -7.8015,0 -14.126,-6.32447 -14.126,-14.12604 z"
         fill-rule="evenodd"
         id="path1233" />
      <path
         fill="#000000"
         fill-opacity="0"
         d="m 3127.9868,567.5424 24,-33.51184"
         fill-rule="evenodd"
         id="path1235" />
      <path
         fill="#000000"
         fill-opacity="0"
         d="m 3125.9868,568.53546 24,35.02362"
         fill-rule="evenodd"
         id="path1239" />
      <path
         fill="#434343"
         d="m 3225.6348,563.75 v -17.1875 h 3.4687 V 563.75 Z m 6.8086,0 v -17.1875 h 3.375 l 7.0312,11.48437 V 546.5625 h 3.2188 V 563.75 h -3.4688 l -6.9375,-11.20313 V 563.75 Z m 21.1601,0 v -14.28125 h -5.0937 v -2.90625 h 13.6562 v 2.90625 h -5.0937 V 563.75 Z m 10.8008,0 v -17.1875 h 12.7344 v 2.90625 h -9.2656 v 3.8125 h 8.625 v 2.89062 h -8.625 v 4.6875 h 9.5937 V 563.75 Z m 16.0235,0 v -17.1875 h 7.2968 q 2.75,0 4,0.46875 1.25,0.46875 2,1.65625 0.75,1.17187 0.75,2.70312 0,1.92188 -1.1406,3.1875 -1.1406,1.26563 -3.3906,1.59375 1.125,0.65625 1.8437,1.4375 0.7344,0.78125 1.9844,2.78125 l 2.0938,3.35938 h -4.1407 l -2.5156,-3.73438 q -1.3281,-2.01562 -1.8281,-2.53125 -0.4844,-0.51562 -1.0469,-0.70312 -0.5469,-0.20313 -1.7344,-0.20313 h -0.7031 V 563.75 Z m 3.4687,-9.92188 h 2.5625 q 2.5,0 3.1094,-0.20312 0.625,-0.21875 0.9687,-0.73438 0.3594,-0.51562 0.3594,-1.28125 0,-0.875 -0.4687,-1.40625 -0.4532,-0.53125 -1.2969,-0.67187 -0.4219,-0.0625 -2.5313,-0.0625 h -2.7031 z"
         fill-rule="nonzero"
         id="path2177" />
      <path
         fill="#434343"
         d="m 3238.9355,588.55 v -14.28125 h -5.0937 v -2.90625 h 13.6562 v 2.90625 h -5.0937 V 588.55 Z m 10.8008,0 v -17.1875 h 12.7344 v 2.90625 h -9.2657 v 3.8125 h 8.625 v 2.89062 h -8.625 v 4.6875 h 9.5938 V 588.55 Z m 14.2578,0 5.875,-8.96875 -5.3281,-8.21875 h 4.0625 l 3.4375,5.53125 3.375,-5.53125 h 4.0312 l -5.3437,8.34375 5.8593,8.84375 h -4.1718 l -3.8125,-5.9375 -3.8282,5.9375 z m 21.6172,0 v -14.28125 h -5.0938 v -2.90625 h 13.6563 v 2.90625 H 3289.08 V 588.55 Z"
         fill-rule="nonzero"
         id="path2179" />
      <path
         fill="#000000"
         fill-opacity="0"
         d="m 3139.9133,567.44525 h 5.5432"
         fill-rule="evenodd"
         id="path2333" />
      <path
         fill="#000000"
         fill-opacity="0"
         d="m 3173.698,567.44525 h 8.7559"
         fill-rule="evenodd"
         id="path2337" />
      <path
         fill="#000000"
         fill-opacity="0"
         d="m 3210.698,567.44525 h 36.9763"
         fill-rule="evenodd"
         id="path2353" />
      <path
         stroke="#b7b7b7"
         stroke-width="2"
         stroke-linejoin="round"
         stroke-linecap="butt"
         stroke-dasharray="8, 6"
         d="m 3210.698,567.44525 h 36.9763"
         fill-rule="evenodd"
         id="path2355" />
      <path
         fill="#cccccc"
         d="m 3044.0918,567.44525 v 0 c 0,-7.80151 6.3242,-14.12598 14.126,-14.12598 v 0 c 3.7463,0 7.3393,1.48828 9.9885,4.13745 2.6492,2.64911 4.1375,6.24213 4.1375,9.98853 v 0 c 0,7.80157 -6.3245,14.12604 -14.126,14.12604 v 0 c -7.8018,0 -14.126,-6.32447 -14.126,-14.12604 z"
         fill-rule="evenodd"
         id="path2159" />
      <path
         fill="#999999"
         d="m 3077.9304,567.44525 v 0 c 0,-7.80151 6.3244,-14.12598 14.1259,-14.12598 v 0 c 3.7466,0 7.3394,1.48828 9.9886,4.13745 2.6491,2.64911 4.1374,6.24213 4.1374,9.98853 v 0 c 0,7.80157 -6.3245,14.12604 -14.126,14.12604 v 0 c -7.8015,0 -14.126,-6.32447 -14.126,-14.12604 z"
         fill-rule="evenodd"
         id="path2161" />
      <g
         id="g2671"
         transform="translate(1.6074995)">
        <path
           stroke="#a61c00"
           stroke-width="3"
           stroke-linejoin="round"
           stroke-linecap="butt"
           d="m 3111.6614,567.44525 v 0 c 0,-7.80151 6.3242,-14.12598 14.126,-14.12598 v 0 c 3.7463,0 7.3393,1.48828 9.9885,4.13745 2.6492,2.64911 4.1375,6.24213 4.1375,9.98853 v 0 c 0,7.80157 -6.3245,14.12604 -14.126,14.12604 v 0 c -7.8018,0 -14.126,-6.32447 -14.126,-14.12604 z"
           fill-rule="evenodd"
           id="path2165" />
        <path
           fill="#dd7e6b"
           d="m 3111.6614,567.44525 v 0 c 0,-7.80151 6.3242,-14.12598 14.126,-14.12598 v 0 c 3.7463,0 7.3393,1.48828 9.9885,4.13745 2.6492,2.64911 4.1375,6.24213 4.1375,9.98853 v 0 c 0,7.80157 -6.3245,14.12604 -14.126,14.12604 v 0 c -7.8018,0 -14.126,-6.32447 -14.126,-14.12604 z"
           fill-rule="evenodd"
           id="path2163" />
      </g>
      <path
         fill="#6d9eeb"
         d="m 3149.9362,567.44526 v 0 c 0,-6.24121 5.0596,-11.30079 11.3008,-11.30079 v 0 c 2.9972,0 5.8716,1.19063 7.9909,3.30996 2.1193,2.11929 3.3099,4.99371 3.3099,7.99083 v 0 c 0,6.24125 -5.0596,11.30083 -11.3008,11.30083 v 0 c -6.2412,0 -11.3008,-5.05958 -11.3008,-11.30083 z"
         fill-rule="evenodd"
         id="path2167"
         style="stroke-width:0.8" />
      <path
         fill="#6d9eeb"
         d="m 3182.446,567.44525 v 0 c 0,-7.80151 6.3245,-14.12598 14.126,-14.12598 v 0 c 3.7463,0 7.3393,1.48828 9.9885,4.13745 2.6492,2.64911 4.1375,6.24213 4.1375,9.98853 v 0 c 0,7.80157 -6.3245,14.12604 -14.126,14.12604 v 0 c -7.8015,0 -14.126,-6.32447 -14.126,-14.12604 z"
         fill-rule="evenodd"
         id="path2173" />
      <g
         id="g3447"
         transform="matrix(0.8,0,0,0.8,627.40156,111.13721)">
        <path
           fill="#6d9eeb"
           d="m 3138.2047,534.94585 v 0 c 0,-7.80157 6.3245,-14.12598 14.126,-14.12598 v 0 c 3.7465,0 7.3396,1.48828 9.9885,4.13739 2.6492,2.64911 4.1374,6.24213 4.1374,9.98859 v 0 c 0,7.80157 -6.3244,14.12598 -14.1259,14.12598 v 0 c -7.8016,0 -14.126,-6.32441 -14.126,-14.12598 z"
           fill-rule="evenodd"
           id="path2169" />
      </g>
      <g
         id="g3456"
         transform="matrix(0.8,0,0,-0.8,625.40156,1023.7534)">
        <path
           fill="#6d9eeb"
           d="m 3138.2047,534.94585 v 0 c 0,-7.80157 6.3245,-14.12598 14.126,-14.12598 v 0 c 3.7465,0 7.3396,1.48828 9.9885,4.13739 2.6492,2.64911 4.1374,6.24213 4.1374,9.98859 v 0 c 0,7.80157 -6.3244,14.12598 -14.1259,14.12598 v 0 c -7.8016,0 -14.126,-6.32441 -14.126,-14.12598 z"
           fill-rule="evenodd"
           id="path3454" />
      </g>
    </g>
  </g>
</svg>
